<?xml version="1.0" encoding="utf-8"?>
<!-- Generator: Adobe Illustrator 21.1.0, SVG Export Plug-In . SVG Version: 6.00 Build 0)  -->
<svg version="1.1" id="Capa_1" xmlns="http://www.w3.org/2000/svg" xmlns:xlink="http://www.w3.org/1999/xlink" x="0px" y="0px"
	 viewBox="0 0 512 512" style="enable-background:new 0 0 512 512;" xml:space="preserve">
<style type="text/css">
	.st0{fill:#FF7D6C;}
</style>
<g>
	<g>
		<g>
			<polygon class="st0" points="353.6,176.5 313.5,175.1 304.8,412.3 344.9,413.8 			"/>
			<rect x="235.9" y="175.8" class="st0" width="40.1" height="237.3"/>
			<polygon class="st0" points="207.2,412.3 198.5,175 158.4,176.5 167.1,413.8 			"/>
			<path class="st0" d="M17.4,76.9V117h41.8l33.2,376.7c0.9,10.4,9.6,18.3,20,18.3H399c10.4,0,19.1-7.9,20-18.3L452.2,117h42.5V76.9
				H17.4z M380.7,471.9h-250L99.4,117h312.5L380.7,471.9z"/>
		</g>
	</g>
</g>
<g>
	<g>
		<path class="st0" d="M321.5,0h-131c-18.4,0-33.4,15-33.4,33.4v63.5h40.1V40.1h117.6v56.8h40.1V33.4C354.9,15,339.9,0,321.5,0z"/>
	</g>
</g>
</svg>
