<svg id="Livello_1" data-name="Livello 1" xmlns="http://www.w3.org/2000/svg" viewBox="0 0 94.6 94.8"><defs><style>.cls-1{fill:#ff7d6c;}.cls-2{fill:none;}</style></defs><title>edit3</title><path class="cls-1" d="M19.8,86.45,19.7,106a4.23,4.23,0,0,0,1.2,3,4,4,0,0,0,2.9,1.2l19.4-.1a4,4,0,0,0,2.9-1.2l67-67a4.23,4.23,0,0,0,0-5.9L93.9,16.55a4.23,4.23,0,0,0-5.9,0L74.6,30.05,21,83.55A4.45,4.45,0,0,0,19.8,86.45Zm77.1-40L83.4,33M91,52.35l-49.4,49.3-13.6.1.1-13.5,49.4-49.4m0,0L91,52.35" transform="translate(-19.7 -15.35)"/><line class="cls-2" x1="55.3" y1="25.25" x2="61.35" y2="19.2"/><line class="cls-2" x1="68.8" y1="38.75" x2="74.7" y2="32.85"/><line class="cls-2" x1="51.05" y1="30.25" x2="56.95" y2="24.35"/><line class="cls-2" x1="64.55" y1="43.75" x2="70.45" y2="37.85"/></svg>