<svg id="Livello_1" data-name="Livello 1" xmlns="http://www.w3.org/2000/svg" viewBox="0 0 94.6 94.8"><defs><style>.cls-1{fill:#ff7d6c;}</style></defs><title>001-edit</title><path class="cls-1" d="M17.3,88.2l-.1,19.5a4.23,4.23,0,0,0,1.2,3,4,4,0,0,0,2.9,1.2l19.4-.1a4,4,0,0,0,2.9-1.2l67-67a4.23,4.23,0,0,0,0-5.9L91.4,18.3a4.23,4.23,0,0,0-5.9,0L72.1,31.8,18.5,85.3A4.45,4.45,0,0,0,17.3,88.2ZM88.5,27.1,102,40.6l-7.6,7.6L80.9,34.7ZM25.6,90,75,40.6,88.5,54.1,39.1,103.4l-13.6.1Z" transform="translate(-17.2 -17.1)"/></svg>