<svg xmlns="http://www.w3.org/2000/svg" viewBox="222 1242.195 141 134.805"><defs><style>.a{fill:#fff;}.b{opacity:0.885;}.c{fill:#f77;}.d{fill:#fec9c2;font-size:19px;font-family:HiraginoSans-W6, Hiragino Sans;letter-spacing:0.029em;}</style></defs><rect class="a" width="71.714" height="48.455" rx="24" transform="translate(222 1257.378)"/><g class="b" transform="translate(247.226 1272.335)"><g transform="translate(0 0)"><path class="c" d="M10.6,22.472a2.719,2.719,0,0,1-3.845,0L.8,16.515a2.718,2.718,0,1,1,3.845-3.844L8.19,16.22a.688.688,0,0,0,.971,0l9.61-9.61a2.718,2.718,0,1,1,3.845,3.844Z" transform="translate(0 -5.814)"/></g></g><path class="a" d="M-341.571,46.114c-11.52,2.643-17.592-5.2-15.78-16.016" transform="translate(595.642 1212.118)"/><path class="a" d="M-357.667,30.809c15.552-3.646,23.75,7.177,21.3,22.1" transform="translate(595.642 1212.098)"/><path class="a" d="M-357.667,44.91c9.494,2.444,14.5-4.811,13.005-14.813" transform="translate(618.14 1215.768)"/><path class="a" d="M-339.757,30.756c-12.818-3.372-19.574,6.638-17.558,20.438" transform="translate(613.496 1215.749)"/><text class="d" transform="translate(222 1340)"><tspan x="0" y="17">Tomato Task</tspan></text></svg>