<svg xmlns="http://www.w3.org/2000/svg" viewBox="80 1276.195 25.699 22.805"><defs><style>.a{fill:#fff;}.b{opacity:0.885;}.c{fill:#f77;}</style></defs><rect class="a" width="25.699" height="17.364" rx="8.682" transform="translate(80 1281.636)"/><g class="b" transform="translate(89.04 1286.996)"><g transform="translate(0 0)"><path class="c" d="M3.8,11.783a.974.974,0,0,1-1.378,0L.285,9.649A.974.974,0,0,1,1.663,8.271L2.935,9.543a.247.247,0,0,0,.348,0L6.726,6.1A.974.974,0,1,1,8.1,7.477Z" transform="translate(0 -5.814)"/></g></g><path class="a" d="M-351.9,35.837c-4.128.947-6.3-1.864-5.655-5.739" transform="translate(443.391 1246.105)"/><path class="a" d="M-357.667,30.353c5.573-1.307,8.511,2.572,7.634,7.919" transform="translate(443.391 1246.098)"/><path class="a" d="M-357.667,35.406c3.4.876,5.2-1.724,4.66-5.308" transform="translate(451.454 1247.413)"/><path class="a" d="M-351.249,30.333c-4.593-1.208-7.014,2.379-6.292,7.324" transform="translate(449.789 1247.406)"/></svg>