<?xml version="1.0" encoding="utf-8"?>
<!-- Generator: Adobe Illustrator 21.1.0, SVG Export Plug-In . SVG Version: 6.00 Build 0)  -->
<svg version="1.1" id="Capa_1" xmlns="http://www.w3.org/2000/svg" xmlns:xlink="http://www.w3.org/1999/xlink" x="0px" y="0px"
	 viewBox="0 0 213 213" style="enable-background:new 0 0 213 213;" xml:space="preserve">
<style type="text/css">
	.st0{fill:#FFFFFF;}
</style>
<g id="Close">
	<path class="st0" d="M131.8,106.5l75.9-75.9c7-7,7-18.3,0-25.3s-18.3-7-25.3,0l-75.9,75.9l-75.9-76c-7-7-18.3-7-25.3,0
		s-7,18.3,0,25.3l75.9,75.9l-76,76c-7,7-7,18.3,0,25.3s18.3,7,25.3,0l75.9-75.9l75.9,75.9c7,7,18.3,7,25.3,0s7-18.3,0-25.3
		L131.8,106.5z"/>
</g>
</svg>
